HIERARCHY
ROOT RootJoint
{
    OFFSET   0.000000   0.000000   0.000000
    CHANNELS 6 Xposition Yposition Zposition Xrotation Yrotation Zrotation
    JOINT pelvis_lowerback
    {
        OFFSET   0.000000   0.093605   0.000000
        CHANNELS 3 Xrotation Yrotation Zrotation
        JOINT lowerback_torso
        {
            OFFSET   0.000000   0.100000   0.000000
            CHANNELS 3 Xrotation Yrotation Zrotation
            JOINT torso_head
            {
                OFFSET   0.000000   0.282350   0.000000
                CHANNELS 3 Xrotation Yrotation Zrotation
                End Site
                {
                    OFFSET   0.000000   0.192650   0.000000
                }
            }
            JOINT rTorso_Clavicle
            {
                OFFSET  -0.001000   0.157500   0.000000
                CHANNELS 3 Xrotation Yrotation Zrotation
                JOINT rShoulder
                {
                    OFFSET  -0.117647   0.000000   0.000000
                    CHANNELS 3 Xrotation Yrotation Zrotation
                    JOINT rElbow
                    {
                        OFFSET  -0.245000   0.000000   0.000000
                        CHANNELS 3 Xrotation Yrotation Zrotation
                        JOINT rWrist
                        {
                            OFFSET  -0.240000   0.000000   0.000000
                            CHANNELS 3 Xrotation Yrotation Zrotation
                            End Site
                            {
                                OFFSET  -0.116353  -0.002500   0.000000
                            }
                        }
                    }
                }
            }
            JOINT lTorso_Clavicle
            {
                OFFSET   0.001000   0.157500   0.000000
                CHANNELS 3 Xrotation Yrotation Zrotation
                JOINT lShoulder
                {
                    OFFSET   0.117647   0.000000   0.000000
                    CHANNELS 3 Xrotation Yrotation Zrotation
                    JOINT lElbow
                    {
                        OFFSET   0.245000   0.000000   0.000000
                        CHANNELS 3 Xrotation Yrotation Zrotation
                        JOINT lWrist
                        {
                            OFFSET   0.240000   0.000000   0.000000
                            CHANNELS 3 Xrotation Yrotation Zrotation
                            End Site
                            {
                                OFFSET   0.116353  -0.002500   0.000000
                            }
                        }
                    }
                }
            }
        }
    }
    JOINT rHip
    {
        OFFSET  -0.100000  -0.051395   0.000000
        CHANNELS 3 Xrotation Yrotation Zrotation
        JOINT rKnee
        {
            OFFSET   0.000000  -0.410000   0.000000
            CHANNELS 3 Xrotation Yrotation Zrotation
            JOINT rAnkle
            {
                OFFSET   0.000000  -0.390000   0.000000
                CHANNELS 3 Xrotation Yrotation Zrotation
                JOINT rToeJoint
                {
                    OFFSET   0.000000  -0.050000   0.130000
                    CHANNELS 3 Xrotation Yrotation Zrotation
                    End Site
                    {
                        OFFSET  -0.010000   0.002000   0.060000
                    }
                }
            }
        }
    }
    JOINT lHip
    {
        OFFSET   0.100000  -0.051395   0.000000
        CHANNELS 3 Xrotation Yrotation Zrotation
        JOINT lKnee
        {
            OFFSET   0.000000  -0.410000   0.000000
            CHANNELS 3 Xrotation Yrotation Zrotation
            JOINT lAnkle
            {
                OFFSET   0.000000  -0.390000   0.000000
                CHANNELS 3 Xrotation Yrotation Zrotation
                JOINT lToeJoint
                {
                    OFFSET   0.000000  -0.050000   0.130000
                    CHANNELS 3 Xrotation Yrotation Zrotation
                    End Site
                    {
                        OFFSET   0.010000   0.002000   0.060000
                    }
                }
            }
        }
    }
}
MOTION
Frames: 15
Frame Time:   0.008333
 -2.362178   0.856575   4.237026  -1.722067  -1.749121  -2.295904  12.833128  -6.024677  -0.515555   4.732258  -3.855066   3.863667  -3.439898   1.945592   2.870295   2.922639  -1.679544  14.695236   9.225566   6.021967  41.767073  -0.000290  25.743610  -0.000905   4.032663   3.481593  -5.251741   0.433612  -5.187010 -13.860492  -3.370012 -12.353675 -42.681983   0.005234 -41.745413   0.019742   3.784352  -4.971447   9.353358 -36.088518  -4.757045  -5.611093  31.909506   0.000303  -0.001458  -9.377914 -10.293950   7.499389  -1.386116  -0.000181  -0.000166  16.262287   4.589287   5.068167  16.290647   0.000151   0.000026 -30.820247   4.767009   1.069215  -0.046832  -0.000053   0.000014
 -2.363962   0.853663   4.243801  -1.582253  -1.548436  -2.183611  12.987623  -6.193429  -0.414737   4.739801  -3.916074   3.876576  -3.518127   1.977830   2.711613   2.958542  -1.693175  14.662078   9.274865   5.849562  41.654038  -0.000444  25.360000  -0.000365   4.037079   3.468949  -5.169013   0.384710  -5.390840 -13.788192  -3.491938 -12.853148 -42.535253   0.006896 -42.665237   0.022601   3.835138  -4.913759   9.383687 -36.685152  -4.709985  -5.822883  31.646715   0.000191  -0.001410  -9.333735 -10.289295   7.425148  -1.410724  -0.000135  -0.000175  16.578094   4.444786   5.150650  16.371006   0.000019   0.000082 -31.264889   4.763192   0.776438  -0.147956  -0.000146   0.000015
 -2.365828   0.850659   4.250734  -1.443691  -1.330081  -2.077005  13.142312  -6.351204  -0.300907   4.757301  -3.973491   3.893693  -3.586602   2.009582   2.561338   2.988371  -1.696997  14.621810   9.320434   5.686595  41.534655  -0.000557  24.993889   0.000189   4.040150   3.400206  -5.084314   0.322469  -5.599813 -13.727426  -3.619402 -13.343239 -42.409169   0.008264 -43.545234   0.024378   3.908581  -4.981689   9.380117 -37.260089  -4.657325  -6.034955  31.478397   0.000110  -0.001314  -9.288767 -10.286157   7.355501  -1.433509  -0.000103  -0.000180  16.900815   4.297947   5.252637  16.457863  -0.000097   0.000143 -31.712269   4.750119   0.495717  -0.266825  -0.000214   0.000016
 -2.367797   0.847586   4.257834  -1.292034  -1.113534  -1.967734  13.285449  -6.497800  -0.189632   4.772611  -4.028777   3.911308  -3.648808   2.040157   2.422193   3.012645  -1.697142  14.580405   9.360545   5.535756  41.418949  -0.000638  24.652054   0.000649   4.042954   3.322895  -5.007339   0.257342  -5.803711 -13.676262  -3.743719 -13.809353 -42.297310   0.009320 -44.371819   0.025217   3.986625  -5.093223   9.367702 -37.807907  -4.601701  -6.240617  31.332992   0.000057  -0.001216  -9.246138 -10.283416   7.290408  -1.453956  -0.000078  -0.000179  17.220194   4.157714   5.360439  16.545404  -0.000195   0.000197 -32.141269   4.733854   0.232265  -0.432559  -0.000267   0.000021
 -2.369874   0.844447   4.265104  -1.123214  -0.904616  -1.853862  13.414910  -6.634239  -0.084671   4.782812  -4.081102   3.927612  -3.706831   2.069070   2.292902   3.032043  -1.694752  14.540213   9.395438   5.396873  41.309473  -0.000698  24.334056   0.001010   4.046110   3.251510  -4.937334   0.194374  -5.998182 -13.631952  -3.861257 -14.248237 -42.196804   0.010093 -45.145238   0.025348   4.064045  -5.216768   9.351142 -38.328262  -4.545509  -6.436634  31.197608   0.000027  -0.001124  -9.206354 -10.280981   7.229589  -1.473039  -0.000058  -0.000174  17.533001   4.026114   5.470593  16.632826  -0.000278   0.000243 -32.545228   4.716812  -0.013806  -0.655125  -0.000288   0.000033
 -2.372064   0.841241   4.272542  -0.935553  -0.704350  -1.734991  13.530802  -6.761050   0.013233   4.787657  -4.129884   3.942165  -3.761512   2.096213   2.172440   3.047302  -1.690444  14.501965   9.425696   5.269144  41.206735  -0.000744  24.038486   0.001289   4.049711   3.189188  -4.872894   0.135537  -6.181633 -13.592863  -3.970851 -14.659634 -42.105882   0.010615 -45.867833   0.024954   4.139145  -5.341224   9.331542 -38.821189  -4.490011  -6.621641  31.070033   0.000015  -0.001037  -9.169329 -10.278812   7.172785  -1.491035  -0.000041  -0.000167  17.837618   3.903189   5.582432  16.719966  -0.000350   0.000282 -32.922263   4.699584  -0.242992  -0.937141  -0.000257   0.000051
 -2.374367   0.837962   4.280144  -0.727916  -0.512210  -1.610937  13.633861  -6.878561   0.104167   4.787555  -4.174788   3.954980  -3.813244   2.121626   2.060067   3.059069  -1.684663  14.465747   9.451900   5.151661  41.110587  -0.000781  23.763805   0.001506   4.053708   3.135981  -4.813095   0.081506  -6.353623 -13.557897  -4.072330 -15.044349 -42.023232   0.010918 -46.542475   0.024184   4.211351  -5.462396   9.309623 -39.287006  -4.435849  -6.795362  30.949934   0.000018  -0.000956  -9.134877 -10.276874   7.119745  -1.508023  -0.000028  -0.000157  18.132869   3.788383   5.695844  16.806479  -0.000412   0.000314 -33.272332   4.682158  -0.456004  -1.278007  -0.000157   0.000079
 -2.376795   0.834977   4.288275  -0.553682  -0.366035  -1.496273  13.725675  -7.001431   0.246694   4.806721  -4.191397   3.948580  -3.920441   2.142876   1.888307   3.090219  -1.604389  14.480194   9.450823   5.018068  40.942785  -0.000930  23.407762   0.001893   4.084931   3.104750  -4.706018   0.042723  -6.528398 -13.553252  -3.999973 -15.403248 -41.905493   0.013045 -47.413770   0.026330   4.274324  -5.411672   9.279617 -39.943984  -4.428348  -6.929111  31.892932  -0.000633  -0.000429  -9.118130 -10.319553   6.937214  -1.536404  -0.000069  -0.000108  18.533599   3.614303   5.809961  16.815100  -0.000346   0.000252 -33.341206   4.756252  -0.792802  -2.025826  -0.000840   0.000238
 -2.379409   0.831683   4.296519  -0.328852  -0.146725  -1.509234  13.792008  -7.142295   0.517111   4.803387  -4.219084   3.997616  -4.025025   2.161740   1.729787   3.117401  -1.526032  14.448514   9.450035   4.890406  40.766324  -0.000967  23.074166   0.002168   4.114174   3.054901  -4.598145   0.006244  -6.702536 -13.538681  -3.934987 -15.756518 -41.814636   0.014476 -48.247770   0.027755   4.350910  -5.451267   9.194858 -40.595803  -4.450101  -6.956935  32.975860  -0.001089   0.001231  -9.092533 -10.361892   6.768040  -1.560320  -0.000097  -0.000094  18.896970   3.418024   6.090157  16.868879  -0.000387   0.000211 -32.836659   4.760839  -1.006869  -6.111894   0.002212   0.003514
 -2.382109   0.828794   4.305158  -0.109129   0.020824  -1.425239  13.842366  -7.262603   0.693281   4.796995  -4.238948   4.029561  -4.127888   2.179715   1.584514   3.137119  -1.447302  14.457102   9.444466   4.775022  40.606674  -0.001122  22.759457   0.002349   4.141492   2.986798  -4.513383  -0.022880  -6.864017 -13.548138  -3.868308 -16.079463 -41.725685   0.015372 -49.017612   0.028119   4.425141  -5.485646   9.106333 -41.148570  -4.457882  -7.019051  34.017601  -0.001770   0.001923  -9.066343 -10.400443   6.610070  -1.573431  -0.000098  -0.000071  19.278947   3.253412   6.263884  16.879908  -0.000332   0.000172 -32.864905   4.813129  -1.292042  -6.507608   0.001641   0.002942
 -2.384931   0.826071   4.314054   0.148025   0.188913  -1.337264  13.867060  -7.378788   0.880525   4.774098  -4.259305   4.063711  -4.225935   2.196602   1.447924   3.153491  -1.372241  14.460651   9.437201   4.670526  40.461129  -0.001278  22.468721   0.002463   4.168171   2.933114  -4.423304  -0.046859  -7.016339 -13.558723  -3.804613 -16.384093 -41.650759   0.015831 -49.738843   0.027930   4.496452  -5.524470   9.008830 -41.642304  -4.475458  -7.056540  35.005061  -0.002407   0.002547  -9.041360 -10.437015   6.462766  -1.585120  -0.000094  -0.000054  19.620535   3.098477   6.442452  16.909547  -0.000326   0.000148 -32.712963   4.843341  -1.533560  -7.304167   0.001536   0.002702
 -2.387870   0.823357   4.323132   0.445061   0.362933  -1.253946  13.872841  -7.490393   1.078880   4.735858  -4.279854   4.107980  -4.319321   2.212464   1.322161   3.166066  -1.300432  14.454195   9.428237   4.575100  40.323155  -0.001400  22.199985   0.002537   4.194630   2.896290  -4.334659  -0.071679  -7.160850 -13.562287  -3.747129 -16.672417 -41.581824   0.015874 -50.415697   0.027337   4.566693  -5.575335   8.910586 -42.094063  -4.497844  -7.069646  35.938939  -0.002921   0.003185  -9.017839 -10.471045   6.325496  -1.596706  -0.000089  -0.000042  19.929632   2.949822   6.636047  16.954660  -0.000355   0.000139 -32.446181   4.857803  -1.739015  -8.392290   0.002070   0.002733
 -2.390915   0.820568   4.332351   0.777294   0.541965  -1.168849  13.866490  -7.596342   1.279242   4.686135  -4.299533   4.160075  -4.407886   2.227358   1.206568   3.174586  -1.231145  14.439968   9.417429   4.487978  40.191022  -0.001487  21.951210   0.002590   4.220730   2.872744  -4.253192  -0.100110  -7.297711 -13.556714  -3.696979 -16.944608 -41.513958   0.015584 -51.050429   0.026434   4.636081  -5.636914   8.821311 -42.510305  -4.521850  -7.068767  36.818695  -0.003306   0.003766  -8.995786 -10.502620   6.197515  -1.607950  -0.000084  -0.000035  20.209549   2.807279   6.837094  16.997568  -0.000375   0.000135 -32.123551   4.861486  -1.918147  -9.635005   0.003043   0.002909
 -2.394067   0.819253   4.341761   0.998081   0.463017  -1.227309  13.973218  -7.596144   1.565827   4.744200  -4.245285   4.274551  -4.584168   2.201624   1.041564   3.118683  -1.051683  14.559672   9.327260   4.394162  39.927064  -0.001704  21.698230   0.002553   4.271917   2.826187  -4.229143  -0.157584  -7.465846 -13.624030  -3.504450 -17.127437 -41.422902   0.016727 -51.626745   0.026954   4.738140  -5.645375   8.818636 -43.058751  -4.463335  -6.832480  38.518863  -0.004522   0.004666  -8.984534 -10.475474   5.927220  -1.472733   0.000376  -0.000060  20.466903   2.769946   7.094532  17.352595  -0.001218  -0.000202 -31.033422   4.949356  -2.161269 -12.366199   0.004674   0.005038
 -2.397343   0.818460   4.351565   1.220700   0.373597  -1.312568  14.025547  -7.615941   1.865863   4.816666  -4.192799   4.412714  -4.739569   2.173521   0.890521   3.067933  -0.887626  14.666060   9.242015   4.310786  39.690456  -0.001883  21.467564   0.002367   4.323614   2.806078  -4.193789  -0.166090  -7.603379 -13.679319  -3.291818 -17.286330 -41.356227   0.017520 -52.161319   0.027147   4.833689  -5.623251   8.721394 -43.446654  -4.480212  -6.560859  40.013032  -0.005519   0.004794  -9.109540 -10.462049   5.651789  -1.374703   0.000586  -0.000094  20.686523   2.710552   7.383614  17.784312  -0.002169  -0.000657 -29.599951   4.983504  -2.322611 -15.733799   0.009234   0.010371
